<?xml version="1.0" encoding="utf-8"?>
<!-- Generator: Adobe Illustrator 27.4.0, SVG Export Plug-In . SVG Version: 6.00 Build 0)  -->
<svg version="1.1" id="Слой_1" xmlns="http://www.w3.org/2000/svg" xmlns:xlink="http://www.w3.org/1999/xlink" x="0px" y="0px"
	 viewBox="0 0 720 720" style="enable-background:new 0 0 720 720;" xml:space="preserve">
<style type="text/css">
	.st0{fill:#C9A96E;}
</style>
<path class="st0" d="M350.4,9.6C141.8,20.5,4.1,184.1,12.8,390.4c3.8,90.3,40.1,168,48.7,253.7c2.2,22.2-4.2,49.6,21.4,59.3
	c31.5,11.9,79.8-8.1,106.2-26.4c9-6.1,17.6-13.2,24.2-22c27.3,18.1,53.2,35.6,85.7,43.4c143.1,34.3,299.9-44.2,369.6-170.3
	C799.6,291.2,622.5-4.6,350.4,9.6L350.4,9.6z M269.4,504c-11.3,8.8-22.2,20.8-34.7,27.7c-18.1,9.7-23.7-0.4-30.5-16.4
	c-21.4-50.9-24-137.6-11.5-190.9c16.8-72.5,72.9-136.3,150-143.1c78-6.9,150.4,32.7,183.1,104.2c72.4,159.1-112.9,316.2-256.4,218.6
	l0,0L269.4,504z"/>
</svg>
