<?xml version="1.0" encoding="utf-8"?>
<!-- Generator: Adobe Illustrator 27.4.0, SVG Export Plug-In . SVG Version: 6.00 Build 0)  -->
<svg version="1.1" id="Слой_1" xmlns="http://www.w3.org/2000/svg" xmlns:xlink="http://www.w3.org/1999/xlink" x="0px" y="0px"
	 viewBox="0 0 24 24" style="enable-background:new 0 0 24 24;" xml:space="preserve">
<style type="text/css">
	.st0{fill:#C9A96E;}
</style>
<path class="st0" d="M4.1,11.5c0,0,8-3.3,10.7-4.5c1.5-0.7,3.1-1.3,4.6-1.9c0,0,1.7-0.6,1.5,0.9c0,0.7-0.4,2.9-0.8,5.4
	c-0.6,3.5-1.1,7.3-1.1,7.3S19,19.8,18.2,20s-2.1-0.6-2.3-0.8c-0.2-0.1-3.5-2.2-4.6-3.2c-0.3-0.3-0.7-0.8,0-1.5
	c1.6-1.5,3.3-3.1,4.8-4.6c0.6-0.6,1.1-1.9-1.2-0.3c-3.3,2.3-6.5,4.4-6.5,4.4s-0.7,0.5-2.1,0c-1.4-0.4-3-1-3-1S2.2,12.3,4.1,11.5"/>
</svg>
