<svg xmlns="http://www.w3.org/2000/svg" width="24" height="24" fill="none" viewBox="0 0 24 24"><path fill="currentColor" d="M4.104 11.533s7.96-3.293 10.721-4.453a441 441 0 0 1 4.648-1.948s1.657-.649 1.519.928c-.046.65-.414 2.922-.783 5.38-.552 3.478-1.15 7.281-1.15 7.281s-.092 1.067-.874 1.252-2.071-.649-2.301-.834c-.184-.14-3.451-2.227-4.648-3.247-.322-.278-.69-.835.046-1.484a176 176 0 0 0 4.832-4.638c.552-.556 1.104-1.855-1.196-.278-3.268 2.272-6.489 4.406-6.489 4.406s-.736.464-2.117.046c-1.38-.417-2.99-.974-2.99-.974s-1.105-.695.782-1.437"></path></svg>